# xmcd
#
# Track frame offsets:
#	150
#	29592
#	52682
#	74217
#	96945
#	122138
#	138697
#	154527
#	172338
#
# Disc length: 2751 seconds
#
# Revision: 1
# Processed by: cddbd v1.5.1PL2 Copyright (c) Steve Scherf et al.
# Submitted via: audiograbber 1.83.01
#
DISCID=860abd09
DTITLE=Eagles - Hotel California
DYEAR=1976
DGENRE=Counry rock
TTITLE0=Hotel California
TTITLE1=New kid in town
TTITLE2=Life in the fast lane
TTITLE3=Wasted time
TTITLE4=Wasted time (reprise)
TTITLE5=Victim of love
TTITLE6=Pretty maids all in a row
TTITLE7=Try and love again
TTITLE8=The last resort
EXTD=
EXTT0=
EXTT1=
EXTT2=
EXTT3=
EXTT4=
EXTT5=
EXTT6=
EXTT7=
EXTT8=
PLAYORDER=
